# xmcd
#
# Track frame offsets:
#	183
#	12705
#	23765
#	35605
#	48233
#	64593
#	76553
#	89323
#	98263
#	109335
#	122958
#	133975
#	150968
#	158048
#	167848
#	180953
#	196020
#	207688
#	218155
#	227530
#	239255
#
# Disc length: 3491 seconds
#
# Revision: 1
# Processed by: cddbd v1.4PL0 Copyright (c) Steve Scherf et al.
# Submitted via: audiograbber 1.81.02
#
DISCID=080da115
DTITLE=Staple Singers - Pray On (Charly Records, Ltd.)
DYEAR=1990
DGENRE=Gospel
TTITLE0=Pray On
TTITLE1=Don't Drive Me Away
TTITLE2=Downward Road
TTITLE3=Will The Circle Be Unbroken
TTITLE4=Stand By Me
TTITLE5=Ain't That Good News
TTITLE6=If I Could Hear My Mother Pray
TTITLE7=Going Away
TTITLE8=Don't Knock
TTITLE9=Uncloudy Day
TTITLE10=I Know I Got Religion
TTITLE11=Somebody Save Me
TTITLE12=Let's Go Home
TTITLE13=This May Be The Last Time
TTITLE14=I Had A Dream
TTITLE15=Calling Me
TTITLE16=Each Day
TTITLE17=So Soon
TTITLE18=Born In Bethlehem
TTITLE19=I'm Coming Home
TTITLE20=Too Close (live)
EXTD=This is a compilation issued in 1990 by Charly Records\nLtd, which license
EXTD=d the original VEE JAY recordings.\nCompilation: Hank Davis\nA New Cross G
EXTD=ospel Series Release\n156-166 Ilderton Road, London SE 15 INT
EXTT0=
EXTT1=
EXTT2=
EXTT3=
EXTT4=
EXTT5=
EXTT6=
EXTT7=
EXTT8=
EXTT9=
EXTT10=
EXTT11=
EXTT12=
EXTT13=
EXTT14=
EXTT15=
EXTT16=
EXTT17=
EXTT18=
EXTT19=
EXTT20=Live recording.  1960.
PLAYORDER=
